<svg width="127" height="42" viewBox="0 0 127 42" fill="none" xmlns="http://www.w3.org/2000/svg">
<path d="M0 32.7961H3.04399V29.8583H0V21.2488H3.04399V18.4147H15.2952V24.0173H5.9204V27.0242H12.2854V32.7995H5.9204V35.6371H15.2952V41.4124H0V32.803V32.7961ZM18.5444 18.4113H27.0642C33.9422 18.4113 39.1102 22.7696 39.1102 29.8548C39.1102 36.9401 34.3527 41.4055 27.0642 41.4055H18.5444V18.4113ZM32.882 29.8548C32.882 26.0876 30.522 23.7339 27.0642 23.7339H24.5332V36.076H27.0642C30.5186 36.076 32.882 33.6912 32.882 29.8514V29.8548ZM41.778 18.4113H47.7668V41.4055H41.778V18.4113ZM56.5943 41.6129C56.4233 41.8548 56.4575 41.5438 56.6285 41.5438C56.2181 41.6129 56.7311 41.3364 56.7653 41.2327L56.5943 41.3018C56.7311 41.0599 56.7653 41.2327 56.8338 41.0599C56.8338 41.1982 56.9706 41.129 56.868 41.0599C57.0048 40.9217 56.7654 40.9562 56.6969 40.9908C56.6285 41.0369 56.6171 41.083 56.6627 41.129C56.5601 41.2327 56.5259 41.2673 56.3891 41.1982C56.5943 41.0599 56.3891 41.129 56.2523 41.1636C56.2865 41.2673 56.2181 41.3018 56.1155 41.4055H56.0129C56.0129 41.4747 55.9787 41.5783 55.9103 41.4401C55.9103 41.4055 55.9445 41.371 55.9787 41.371C56.0129 41.371 56.0129 41.371 56.0471 41.3364C56.0471 41.3364 56.0129 41.3018 56.0129 41.2327C55.9103 41.4747 55.9103 41.129 55.8761 41.3018C55.6709 41.1636 55.7393 41.1636 55.9787 41.129C56.0471 41.0945 56.0813 40.9908 56.1839 40.9562C56.1839 41.0253 56.1155 41.0599 56.1839 41.0945C56.2181 41.0945 56.2865 41.129 56.2865 41.0599C56.3891 41.0253 56.4917 40.9562 56.5943 40.8871C56.4917 40.8871 56.4233 40.8525 56.4575 40.9562C56.3549 40.9908 56.1839 40.9908 56.2865 40.8525C56.1839 40.8525 56.2181 40.6797 56.1155 40.7143C56.1155 40.576 56.2523 40.7489 56.2181 40.5415C56.1497 40.6106 55.9787 40.576 56.1155 40.4724C56.0471 40.4032 56.0129 40.3687 56.1155 40.2995C56.2523 40.6452 56.1839 40.1613 56.3207 40.4378C56.3891 40.0922 56.1839 40.0576 56.0471 40.3341C56.0015 40.3571 55.9901 40.4032 56.0129 40.4724C55.9445 40.4724 55.9787 40.5069 56.0129 40.5415C56.1155 40.7143 55.9103 40.4378 55.8419 40.4378L55.8077 40.2995C55.8077 40.5069 55.5683 40.265 55.4657 40.2995C55.4657 40.1959 55.4657 40.1613 55.3631 40.1959C55.5341 39.9194 55.1578 39.9885 55.192 39.7465C55.2605 39.3318 55.0894 38.8479 55.3289 38.4677C55.3631 38.3641 55.4315 38.4677 55.4657 38.3986C55.4999 38.3295 55.5683 38.3641 55.6025 38.3986C55.7051 38.3986 55.6367 38.5023 55.7051 38.5369C55.7735 38.3641 55.8077 38.4332 55.8419 38.5714C55.9787 38.606 55.8419 38.7097 55.7393 38.5714C55.7051 38.5714 55.6709 38.5714 55.7051 38.6406C55.6367 38.7097 55.6025 38.606 55.5683 38.7442C55.7393 38.7788 55.4315 38.8134 55.6025 38.9171L55.4315 38.9862C55.4543 38.9862 55.4771 38.9977 55.4999 39.0207C55.2605 39.0899 55.3289 39.2281 55.4999 39.0553C55.5341 39.1244 55.5341 39.1936 55.6025 39.2281C55.4999 39.2281 55.6025 39.3664 55.6709 39.2972C55.6709 39.3318 55.7051 39.3664 55.7735 39.3318C55.8761 39.2972 55.8077 39.2281 55.7735 39.159C55.8761 39.159 55.8761 39.1244 55.8077 39.0553C55.6709 38.9516 55.8761 38.606 56.0129 38.6751C56.1839 38.7788 56.2865 38.5714 56.4575 38.606C56.4575 38.606 56.4575 38.6406 56.4917 38.6751C56.5601 38.5023 56.4233 38.3641 56.4233 38.5714C56.3549 38.5369 56.3207 38.5714 56.2865 38.5023C56.1839 38.5369 55.9787 38.5023 56.0813 38.6751C55.9787 38.606 55.7735 38.3986 56.0129 38.3295C56.0129 38.3295 55.9787 38.3295 55.9445 38.2949C56.0129 38.2258 55.9103 38.2604 55.8761 38.2258C55.9445 38.1912 55.9787 38.1912 55.9445 38.1221C55.9445 38.053 56.0129 38.0184 55.8761 38.0184C55.9103 37.9839 55.9787 37.9493 55.9103 37.9147C56.1155 37.7765 56.0129 37.7419 55.9103 37.7419C55.8419 37.7419 55.8077 37.7765 55.7735 37.7765C55.7393 37.7419 55.7051 37.7419 55.6709 37.7765C55.7393 37.8456 55.6709 37.8456 55.6025 37.8802C55.7735 38.0184 55.4315 38.0184 55.6025 38.0876C55.4657 38.1221 55.4315 38.1221 55.3973 38.2258C55.4657 38.2604 55.3973 38.2949 55.3631 38.2949C55.2262 38.3295 55.2262 37.4654 55.3289 37.5346C55.2947 37.3272 55.3973 37.1198 55.3631 36.947C55.3973 36.947 55.4315 37.0161 55.4657 37.0161C55.4657 36.9124 55.4657 36.7396 55.5683 36.6359C55.5341 36.6014 55.4999 36.6014 55.4657 36.6014C55.4657 36.5668 55.5341 36.4977 55.4657 36.4977C55.3289 36.4286 55.6367 36.394 55.6025 36.2903C55.2605 36.4977 55.4315 36.0138 55.4315 35.7719C55.4657 35.4608 55.4657 35.1498 55.5341 34.8387C55.5341 34.6659 55.7051 34.7005 55.7051 34.5277C55.5683 34.5277 55.7735 34.3894 55.8077 34.3203C55.7393 34.3203 55.7051 34.3203 55.7393 34.2512C55.5683 34.2512 55.6367 34.424 55.6025 34.5277C55.5341 34.735 55.5341 34.182 55.5683 34.0783C55.5683 34.0438 55.5341 33.9401 55.6367 33.9055C55.6139 33.8825 55.6025 33.8595 55.6025 33.8364C55.6367 33.7327 55.6025 33.5599 55.6709 33.4562C55.6025 33.318 55.7051 33.076 55.7735 33.0415C55.6025 33.076 55.7393 32.7995 55.7393 32.6959C55.9445 32.7995 55.9787 32.6267 55.7393 32.6613C55.7393 32.5461 55.7621 32.4885 55.8077 32.4885C55.7735 32.6613 56.0471 32.523 56.1839 32.523C56.0813 32.4539 55.7393 32.5576 55.9103 32.4194C55.9787 32.4194 56.0129 32.4539 56.0471 32.3848C56.2181 32.2465 56.4917 32.3502 56.5943 32.1429C56.5259 32.1083 56.4917 32.0392 56.3891 32.0737C56.3207 32.1083 56.2523 32.1083 56.2181 32.0392C56.0813 31.97 55.9445 32.0392 55.8077 31.97C56.1839 29.9654 56.3207 27.4389 56.6969 25.5726C56.7654 25.0887 56.9364 23.3952 57.0732 22.8767H56.868C56.0813 22.8767 55.4657 22.9804 54.7816 22.6694C54.7816 22.8076 52.9689 22.7385 53.0715 22.4965C52.9689 22.3929 52.5585 22.4965 52.6269 22.3583C52.6611 22.3237 52.6953 22.3237 52.6611 22.2892C52.6953 22.2892 52.6953 22.2546 52.6611 22.2546C52.6269 22.2546 52.6269 22.22 52.6611 22.22L52.8663 22.1164C52.7637 22.0818 52.6611 22.0818 52.5927 22.1509V22.1164C52.5585 22.0818 52.4559 22.1509 52.4217 22.1855C52.3533 22.1855 52.2849 22.22 52.2165 22.2546C52.0796 22.3237 51.9086 22.2892 51.7376 22.22V22.1509C51.7034 22.1509 51.6692 22.1855 51.635 22.1855C51.5324 22.1509 51.464 22.1164 51.3614 22.1164C51.3158 22.0933 51.3044 22.0703 51.3272 22.0472H51.3956C51.4184 22.0472 51.4298 22.0357 51.4298 22.0127C51.464 22.0127 51.4982 21.9781 51.4982 21.9781H51.4298C51.122 21.9781 51.3272 21.909 51.5666 21.8399C51.464 21.7362 51.3956 21.8053 51.293 21.8053C51.464 21.6671 51.293 21.7016 51.1904 21.8053C51.1904 21.7362 51.2246 21.7362 51.2588 21.7016C51.1562 21.667 51.0536 21.7707 51.122 21.8744C51.0536 21.9781 50.9852 22.0472 50.8826 21.9781C51.1562 21.8053 50.9852 21.8053 50.78 21.909C50.5748 21.9436 50.3695 21.7707 50.1985 21.6671C49.9933 21.5634 49.6855 21.356 49.7881 21.1141C49.6855 21.3906 49.4803 20.6993 49.7539 20.6993C49.7881 20.6993 49.8565 20.6993 49.8565 20.5956C49.7881 20.6302 49.6513 20.7339 49.6513 20.6302C49.6513 20.4228 49.5145 20.1463 49.7881 20.0772C49.7881 20.0311 49.7539 20.0196 49.6855 20.0426C49.6513 19.9389 49.8223 19.9389 49.8907 19.8698C49.8223 19.8698 49.7881 19.9044 49.7197 19.9044C49.7539 19.8353 49.8223 19.8007 49.8223 19.697C49.7881 19.6624 49.8223 19.6279 49.8565 19.6279C49.9591 19.5588 50.0617 19.6279 50.1301 19.5588C50.1985 19.5242 50.3695 19.4896 50.2669 19.4205C50.3353 19.3514 50.3353 19.3168 50.2669 19.2477C50.3695 19.1786 50.4037 19.144 50.3695 19.0749C50.4379 19.1094 50.4721 19.0749 50.5406 19.144C50.5748 19.0403 50.7458 19.0749 50.8484 19.0403C50.609 18.9712 50.8484 18.9366 50.8142 18.833C50.8142 18.7984 50.8484 18.7984 50.8484 18.7638H50.78C50.78 18.7293 50.78 18.6947 50.8142 18.6601C50.7458 18.6601 50.6774 18.6947 50.6432 18.6256H50.6774C50.6774 18.5565 50.5406 18.591 50.4721 18.6256H50.4379C50.4379 18.6601 50.4037 18.6601 50.4037 18.6947C50.4037 18.6601 50.3353 18.6601 50.3011 18.6601C50.4037 18.6256 50.4721 18.4873 50.3011 18.5219C50.3353 18.5219 50.3353 18.4873 50.3353 18.4873C50.6432 18.4528 50.2327 18.3491 50.4721 18.2108C50.4379 18.3491 50.6774 18.1763 50.8142 18.2454C50.78 18.2454 50.7116 18.28 50.7116 18.3145C50.7458 18.3836 50.7116 18.3836 50.6432 18.3836C50.5064 18.4182 50.609 18.4873 50.7116 18.4528C50.78 18.4182 50.8142 18.3836 50.9168 18.3836C50.8142 18.591 51.0878 18.4182 51.1904 18.3836C51.4298 18.3145 51.7376 18.3836 51.9428 18.4528C51.8744 18.5219 51.7034 18.7638 51.7376 18.6256C51.6692 18.6601 51.6008 18.6601 51.5324 18.6947V18.7293C51.464 18.7293 51.3956 18.7293 51.3272 18.7638C51.3956 18.7984 51.464 18.7984 51.5324 18.7638C51.4982 18.7984 51.464 18.7984 51.464 18.833C51.4982 18.9021 51.4298 18.9366 51.3956 19.0058H51.4982C51.5324 19.0058 51.464 19.0058 51.464 19.0403C51.635 18.9712 51.9086 19.0403 51.806 18.833C51.8402 18.833 51.9086 18.8329 51.9428 18.7638C52.0112 18.7638 52.0454 18.7638 51.977 18.6947C52.0112 18.6947 52.0454 18.6601 52.0454 18.6601C52.1139 18.6256 52.1139 18.591 52.0797 18.5565C52.1139 18.4873 52.1823 18.4528 52.0797 18.4182C55.6025 18.6256 58.2737 18.4528 61.7965 18.4528C62.7542 18.3491 63.7802 18.3836 64.7721 18.3491C64.9431 18.3145 64.7379 18.5219 64.9431 18.5219C64.9659 18.568 65.0343 18.568 65.1483 18.5219C65.1141 18.591 65.1141 18.6256 65.0799 18.6601C65.1141 18.6947 65.1483 18.6947 65.1825 18.6947V18.7638C65.1483 18.7984 65.1825 18.833 65.2167 18.8675C65.3535 18.9712 65.5929 18.7984 65.3535 18.7293C65.4561 18.6601 65.3193 18.6256 65.2509 18.6947C65.1483 18.6601 65.2851 18.6256 65.2509 18.591C65.2281 18.568 65.2053 18.568 65.1825 18.591V18.5565C65.3535 18.4528 65.0799 18.3836 64.9773 18.3836C65.3535 18.2108 65.8324 18.3145 66.2428 18.28C66.3568 18.28 66.4252 18.326 66.448 18.4182C66.5164 18.4528 66.4822 18.3836 66.4822 18.3491C66.4822 18.3145 66.5164 18.3836 66.5164 18.4182C66.5506 18.3491 66.5848 18.3145 66.5848 18.28C66.5506 18.4182 66.7558 18.4182 66.6532 18.5219C66.8584 18.591 66.7216 18.4182 66.79 18.3491C66.6532 18.2108 67.8161 18.1417 67.8845 18.28C67.9529 18.3491 67.8161 18.28 67.8503 18.3836C67.7477 18.3145 67.5767 18.2454 67.5083 18.28C67.5425 18.3145 67.5767 18.3491 67.5424 18.3836C67.5767 18.4873 67.6451 18.4528 67.6109 18.5565C67.6451 18.4182 67.7477 18.5565 67.8503 18.5565H67.8845C67.8845 18.6256 67.9529 18.6256 68.0213 18.7293C68.0897 18.6601 68.0897 18.7984 68.0213 18.7984C68.0555 18.9712 68.1581 18.7984 68.1581 18.7293C68.2265 18.7638 68.3291 18.7293 68.3291 18.8675C68.3633 18.833 68.3975 18.7638 68.4317 18.8675C68.5001 18.8675 68.4659 18.7984 68.4659 18.7293C68.5343 18.7062 68.5799 18.7293 68.6027 18.7984C68.6711 18.9712 68.5001 19.0749 68.5001 19.2131C68.5001 19.2477 68.4659 19.2823 68.4317 19.3168C68.4317 19.3514 68.4317 19.3859 68.3633 19.3859C68.4317 19.5588 68.2949 19.5242 68.1923 19.4896C68.1581 19.5933 68.2949 19.8007 68.1239 19.8007C68.1581 19.7316 68.0897 19.7316 68.0555 19.7316C67.8845 19.8007 67.8845 19.6624 67.8161 19.5242C67.6793 19.697 67.7819 19.7661 67.8503 19.9044C67.4056 19.8353 67.7819 20.0081 67.8161 20.1118C67.9187 20.0426 67.8845 20.1809 67.9529 20.25C68.0213 20.1118 68.0897 20.25 68.1923 20.0426C68.2265 20.25 68.0213 20.25 68.0213 20.4228C68.0555 20.3883 68.0555 20.3537 68.0897 20.3537C67.9529 20.7684 67.7477 21.1486 67.5083 21.5288C67.4855 21.4827 67.474 21.4366 67.474 21.3906L67.3714 21.4597C67.3714 21.5288 67.5083 21.4942 67.4398 21.5979C67.4398 21.5634 67.4056 21.5634 67.4056 21.5634C67.2688 21.6671 67.4741 21.7016 67.4398 21.8053C67.4398 21.9436 67.2688 21.9435 67.2346 22.0818C67.2346 22.0818 67.2004 22.1164 67.1662 22.1164C67.0636 22.1855 66.9268 22.1855 66.8242 22.22C66.9952 22.2546 66.8584 22.3237 66.79 22.3237C66.79 22.3929 66.79 22.4274 66.7558 22.462C66.5848 22.5311 66.3796 22.3237 66.2086 22.4274C66.1402 22.4965 66.0718 22.4274 66.0033 22.4274C65.7981 22.4274 65.6955 22.5657 65.4903 22.4965C65.4561 22.5311 65.5929 22.5311 65.5587 22.6002C65.4903 22.5657 65.4561 22.6348 65.3877 22.5311L65.1141 22.4965C64.8747 22.5311 64.6695 22.7039 64.4643 22.5311C64.1906 22.6348 63.7118 22.5311 63.575 22.7039C63.3698 22.6694 63.3356 22.7039 63.5066 22.6002C63.404 22.6348 63.0962 22.4965 63.0962 22.6002C63.3014 22.6002 63.233 22.7385 62.9594 22.6002C62.9822 22.6463 62.9936 22.6924 62.9936 22.7385C62.6857 22.6348 62.4463 22.8422 62.4463 22.8422C62.2753 23.2915 61.9675 25.0541 61.8991 25.5035C61.5913 27.8537 61.215 30.0691 61.044 32.3848C60.702 34.2512 60.702 36.985 60.4968 38.4021C60.3942 38.5058 60.5652 38.5749 60.5652 38.6786C60.4968 38.8514 60.5994 39.3353 60.4284 39.3698C60.531 39.5772 60.4626 39.8191 60.4968 40.0265C60.3942 39.9919 60.4626 39.9228 60.4284 39.8537C60.36 39.8537 60.1548 39.75 60.189 39.8883C60.2232 39.9228 60.2232 39.9574 60.2574 39.9574C60.3942 39.9574 60.36 40.0956 60.3942 40.1993C60.4968 40.0611 60.6336 40.4067 60.531 40.4758C60.3942 40.5795 60.6336 40.7177 60.4626 40.856C60.2916 41.0634 59.9838 41.3399 59.6759 41.167C59.5391 41.0634 59.4023 41.3053 59.2997 41.2016C59.1287 40.9597 59.0603 41.1671 59.0945 41.3399C58.8209 41.4436 58.3421 41.5472 58.1369 41.409C58.0684 41.4435 57.9658 41.5818 57.9658 41.409C58.1369 41.5127 58.0684 41.2016 57.8974 41.167C57.9316 41.2362 57.9658 41.2362 57.9658 41.3053C57.829 41.2362 57.7264 41.2016 57.7264 41.0288C57.7264 41.1671 57.5212 41.167 57.6238 41.3053C57.7264 41.409 57.6922 41.6509 57.5212 41.5472C57.6238 41.6855 57.487 41.8237 57.4528 41.5818C57.316 41.6855 57.2818 41.7546 57.2134 41.4781C57.1792 41.5472 57.1792 41.6164 57.1108 41.6164C57.0082 41.5818 56.9056 41.6509 56.803 41.5818C57.0766 41.5818 56.7346 41.409 56.7688 41.5818C56.632 41.5127 56.7004 41.6855 56.7004 41.7546C56.6776 41.7546 56.6434 41.7085 56.5978 41.6164L56.5943 41.6129ZM50.2977 20.9689C50.3661 20.9343 50.2293 20.8652 50.3661 20.7961C50.1951 20.8306 50.1267 20.727 49.9215 20.8652C50.0241 20.8652 50.1267 20.7615 50.1951 20.8998C50.0583 20.8652 50.0241 20.9689 49.9557 21.0035C49.9215 21.1417 50.1951 20.9689 50.2977 20.9689ZM50.5029 20.3122C50.4003 20.3122 50.3319 20.2776 50.2635 20.2776C50.2977 20.2776 50.3319 20.2777 50.3661 20.2431H50.2635C50.3319 20.2085 50.4003 20.2085 50.4687 20.174C50.4345 20.0012 49.8873 20.1394 50.1609 20.2085C49.8873 20.3468 50.1951 20.174 50.1267 20.3813C50.2635 20.4159 50.3319 20.4159 50.5029 20.3122ZM50.2977 20.727H50.1951C50.2977 20.6578 50.4003 20.5887 50.5371 20.5541C50.6397 20.6233 50.7081 20.4505 50.845 20.485C51.187 20.4505 50.845 20.4505 50.7081 20.4159C50.6397 20.3813 50.4345 20.3468 50.5029 20.485C50.4687 20.5541 50.4003 20.5196 50.4345 20.4505C50.2977 20.3813 50.1609 20.485 50.2635 20.5196V20.5887C50.1609 20.6233 50.2293 20.727 50.1267 20.7615C50.1951 20.7846 50.2521 20.773 50.2977 20.727ZM50.4345 19.7247C50.3661 19.7592 50.3319 19.7938 50.2977 19.8283C50.4003 19.8283 50.4003 19.7592 50.4345 19.7247ZM50.7766 19.932C50.6055 19.9666 50.7423 19.8975 50.7766 19.8629C50.7081 19.8283 50.6397 19.8629 50.5713 19.8629C50.2977 19.8629 50.1951 20.1048 50.5371 20.0357C50.5371 20.0703 50.5029 20.1048 50.4687 20.1394C50.6397 20.1048 51.187 19.8629 50.7766 19.932ZM50.5029 21.6601C50.4003 21.6256 50.3661 21.6601 50.3661 21.7293C50.4345 21.7293 50.4687 21.6947 50.5029 21.6601ZM50.7423 21.3491C50.7765 21.3145 50.845 21.3145 50.9134 21.3145C50.845 21.28 50.7765 21.28 50.8107 21.2108C50.4345 21.1763 50.845 21.3836 50.4687 21.4182C50.6055 21.4528 50.4687 21.4528 50.4345 21.4873C50.5713 21.5565 50.7081 21.4873 50.7423 21.3491ZM50.6397 19.6901C50.5029 19.6555 50.4687 19.6555 50.4687 19.7247C50.5371 19.7247 50.6055 19.7247 50.6397 19.6901ZM51.0844 18.8952C50.9476 18.8606 50.8792 18.9643 50.7766 18.9643C50.8108 18.9988 51.0502 18.9643 51.0844 18.8952ZM51.3922 19.2062C51.2896 19.1717 51.187 19.1717 51.1528 19.2062C50.6739 19.5173 51.0502 19.379 51.3238 19.3099C51.2212 19.2408 51.3238 19.2408 51.3922 19.2062ZM51.1186 19.4827C51.0844 19.5518 50.9476 19.5173 50.9818 19.5864C51.187 19.621 51.358 19.4136 51.1186 19.4827ZM51.3238 20.4159C51.4264 20.3813 51.529 20.3122 51.6316 20.2776C51.529 20.2776 51.4264 20.3122 51.4606 20.2085C51.3922 20.174 51.2896 20.2777 51.2212 20.3122C51.358 20.3468 51.2554 20.5196 51.187 20.5541C51.1186 20.5887 51.0844 20.5541 51.0502 20.5196C51.016 20.5541 50.9818 20.5887 51.016 20.5887C51.0502 20.6233 51.1186 20.6233 51.2212 20.6578C51.2554 20.5887 51.5974 20.5196 51.3238 20.4159ZM51.2554 19.932C51.2212 19.8283 51.0844 19.932 51.016 19.9666C51.0502 20.1048 51.1528 19.9666 51.2554 19.932ZM51.1528 20.174C51.1186 20.1048 51.0502 20.174 51.016 20.2085C51.016 20.2431 51.0844 20.174 51.1528 20.174ZM51.6658 19.8283C51.7 19.8283 51.7342 19.7938 51.7684 19.7938C51.6658 19.7592 51.7684 19.7247 51.8026 19.6555C51.6658 19.6901 51.6658 19.5864 51.8026 19.5864C52.213 19.4827 51.6658 19.379 51.529 19.5864C51.4606 19.4827 51.358 19.6555 51.3922 19.6901C51.4264 19.7247 51.4948 19.7247 51.529 19.7247C51.1528 19.8975 51.529 19.7938 51.529 19.932C51.5974 19.8975 51.8368 19.8629 51.6658 19.8283ZM51.6658 18.4804C51.6316 18.4804 51.5974 18.4459 51.529 18.4459C51.5632 18.5495 51.4606 18.4804 51.4264 18.515C51.4606 18.5841 51.4606 18.5495 51.6658 18.4804ZM51.8026 19.2408C51.7342 19.1717 51.7 19.1717 51.5974 19.2753C51.6658 19.2753 51.7342 19.2408 51.8026 19.2408ZM52.0762 20.9689C52.0078 20.9689 51.8026 21.0035 51.9052 21.0726C51.9736 21.1417 52.0078 21.1071 52.0762 21.1071C51.9736 21.038 52.1104 21.0035 52.0762 20.9689ZM52.2472 19.3099C52.1446 19.3099 52.042 19.3445 51.9736 19.379C52.042 19.3445 52.1446 19.4136 52.2472 19.3099ZM52.1788 18.6878C52.1104 18.6878 52.042 18.6878 52.0078 18.7223C52.0762 18.7915 52.1446 18.7915 52.1788 18.6878ZM52.1788 19.5518C52.3498 19.379 52.042 19.4482 52.0762 19.6555C52.1788 19.6901 52.3156 19.5864 52.1788 19.5518ZM52.2814 19.1371C52.2472 19.1371 52.1788 19.1371 52.1788 19.1717C52.2472 19.1717 52.3156 19.2408 52.2814 19.1371ZM52.4525 19.5864C52.2814 19.5518 52.2472 19.6901 52.1788 19.7938C52.213 19.6901 52.6235 19.621 52.4525 19.5864ZM52.213 19.7938H52.3498C52.3156 19.6901 52.2472 19.7592 52.213 19.7938ZM52.4867 19.2753C52.384 19.3099 52.3156 19.3099 52.2472 19.3445C52.3156 19.3445 52.5551 19.4136 52.4867 19.2753ZM52.3498 19.9666C52.3498 19.7592 52.2814 19.932 52.2472 20.0357C52.3156 20.0357 52.5893 19.9666 52.3498 19.9666ZM55.257 38.1532H55.1886C55.1544 38.0495 55.257 38.0495 55.257 38.1532ZM55.4622 39.3975C55.428 39.5703 55.3596 39.5012 55.3596 39.3975C55.3254 39.432 55.257 39.5357 55.3254 39.6048C55.428 39.5703 55.428 39.7085 55.4622 39.7776C55.4622 39.674 55.4964 39.5012 55.4622 39.3975ZM55.3254 38.6717L55.3938 38.8445C55.428 38.7408 55.3938 38.7062 55.3254 38.6717ZM55.3938 38.4643C55.3596 38.4989 55.3938 38.568 55.428 38.6371C55.428 38.568 55.4964 38.4297 55.3938 38.4643ZM55.7017 37.462C55.8385 37.3583 55.7017 37.2546 55.7701 37.1164C55.7017 37.1509 55.6675 37.1509 55.6675 37.22C55.6675 37.3237 55.5307 37.2892 55.4622 37.2892C55.3596 37.2892 55.428 37.3929 55.3938 37.4274C55.3596 37.5311 55.4964 37.5657 55.5306 37.462H55.5649C55.4964 37.6002 55.6675 37.462 55.7017 37.462ZM55.6333 37.6348C55.7017 37.6002 55.6675 37.5311 55.5991 37.5657C55.5991 37.6348 55.4964 37.6002 55.4622 37.6694C55.5307 37.6694 55.5648 37.6348 55.6333 37.6348ZM55.5306 39.985C55.5306 40.0196 55.4964 40.0541 55.4622 40.0887C55.5307 40.1578 55.5991 39.985 55.5306 39.985ZM55.5306 40.1578C55.5991 40.1924 55.6333 40.227 55.6675 40.2615C55.7017 40.1924 55.6675 40.1924 55.5306 40.1578ZM55.9411 36.4251C56.0095 36.356 55.8385 36.356 55.8043 36.356C55.8043 36.356 55.7701 36.3906 55.7701 36.4251C55.7017 36.356 55.5648 36.4251 55.6675 36.4597C55.4622 36.5634 55.6675 36.4942 55.7017 36.7016L55.9069 36.5979C55.6675 36.4942 55.8043 36.4597 55.9411 36.4251ZM55.8385 40.1233C55.8727 39.985 55.7701 39.9159 55.8727 39.8468C55.8385 39.8468 55.8727 39.7777 55.8727 39.7085C55.8385 39.674 55.8385 39.7776 55.8043 39.7776H55.8385C55.3938 39.9505 55.7701 39.6048 56.0095 39.6394C55.9753 39.674 55.9069 39.7085 55.9753 39.7431C56.1121 39.7085 56.1805 39.985 56.1805 40.0887C56.1121 40.0196 56.0779 40.0541 56.0437 40.1233C56.1121 40.1233 56.1463 40.1233 56.1121 40.227C56.0095 40.1924 55.8385 40.227 55.8385 40.1233ZM55.6675 36.1832C55.4964 36.6325 56.1121 36.0449 55.7017 36.2869C55.7701 36.2177 55.7701 36.1486 55.6675 36.1832ZM55.8727 33.833C55.9069 33.833 55.9753 33.833 55.9411 33.7984C55.9411 33.6947 56.0095 33.6601 56.0779 33.6256C56.0095 33.6256 55.8043 33.6947 55.9753 33.591C56.0437 33.591 56.0779 33.5449 56.0779 33.4528C55.9411 33.4873 55.7701 33.4528 55.7359 33.591C55.6333 33.7638 55.8727 33.6256 55.8727 33.7293C55.7701 33.7293 55.7017 33.7293 55.6675 33.833C55.7701 33.9021 56.2147 33.9366 55.8727 33.833ZM55.7701 38.7788C55.7701 38.8134 55.7359 38.8134 55.7017 38.8479C55.6675 38.6751 55.7359 38.606 55.7701 38.7788ZM55.8043 40.5069C55.8385 40.5069 55.8727 40.5069 55.8727 40.6106C55.8043 40.576 55.7017 40.5415 55.8043 40.5069ZM55.7701 32.0357V32.0012C56.0095 32.0012 55.9753 32.1048 55.7701 32.0357ZM56.0437 32.7961C56.0893 32.773 56.1805 32.7846 56.3173 32.8306C56.3515 32.727 56.2831 32.727 56.1805 32.7615C56.2147 32.6233 56.0095 32.727 55.9411 32.6924C56.0437 32.7615 55.9753 32.8306 55.9069 32.8306C55.5991 32.9343 56.2147 33.0726 56.0437 32.7961ZM56.1463 39.2281C56.1121 39.0553 56.1121 38.9171 56.0437 39.159C56.0095 39.1244 56.0095 39.0207 55.9753 39.1244C55.9069 38.9862 55.8727 39.0553 55.8727 39.1244C55.8385 39.1936 55.8727 39.2972 55.9411 39.3664C56.0779 39.3664 56.0095 39.1244 56.1463 39.2281ZM56.0095 33.1763C55.9753 33.1763 55.8727 33.1763 55.8727 33.2108C55.9753 33.2454 56.0437 33.28 56.0095 33.1763ZM56.0095 36.6014C55.9639 36.6014 55.9525 36.6475 55.9753 36.7396C56.0095 36.7051 56.0437 36.6705 56.0095 36.6014ZM56.0779 39.5737C56.0779 39.7465 56.2147 39.5392 56.1121 39.4355C56.0779 39.5046 55.9069 39.5046 56.0437 39.6083C56.0779 39.6083 56.0779 39.5737 56.0779 39.5737ZM56.3857 32.727L56.4541 32.7961C56.3173 32.9689 56.3173 32.8998 56.1805 32.8998C56.1121 33.0726 55.9069 33.2108 56.1805 33.2108C56.3857 33.1763 56.8645 32.6924 56.3857 32.727ZM56.0779 35.25C56.0779 35.4228 56.1805 35.3882 56.2489 35.2846C56.1121 35.3191 56.2831 35.1118 56.0779 35.25ZM56.3173 33.3491C56.2489 33.3836 56.2147 33.3836 56.1463 33.3836C56.2489 33.4182 56.2831 33.4182 56.3173 33.3491ZM56.3173 38.3986C56.2831 38.3641 56.2489 38.3641 56.1805 38.3641C56.2147 38.3986 56.2147 38.4332 56.2489 38.4332C56.2831 38.4332 56.2831 38.3986 56.3173 38.3986ZM56.2489 33.5219C56.1805 33.6256 56.1805 33.7984 56.3173 33.6601C56.1805 33.591 56.4199 33.5219 56.2489 33.5219ZM56.4883 33.6601C56.4541 33.6601 56.3857 33.6601 56.3857 33.6947C56.3515 33.7293 56.2489 33.833 56.2489 33.8675C56.3173 33.7984 56.4541 33.7984 56.4883 33.6601ZM56.3515 33.833C56.3515 33.8675 56.3173 33.8675 56.2831 33.9021H56.4199C56.4541 33.9021 56.3857 33.8675 56.3515 33.833ZM56.5225 33.4182C56.5225 33.3491 56.3515 33.3836 56.3173 33.4182C56.3857 33.4182 56.4541 33.4528 56.5225 33.4182ZM56.3515 33.9366C56.3173 34.0749 56.2831 34.2131 56.4541 34.144C56.3857 34.1095 56.4199 34.0058 56.3515 33.9366ZM56.4883 37.8111C56.6251 37.5346 56.5225 37.8456 56.6251 37.8456C56.7619 37.8111 56.6935 37.7765 56.7277 37.6728C56.6251 37.6728 56.6935 37.5346 56.7277 37.5691C57.0013 37.6037 56.6251 37.3272 56.8303 37.2235C56.7277 37.1889 56.7961 37.1544 56.8303 37.0853C56.6935 37.0161 56.5225 37.0161 56.3857 37.2235C56.4199 37.2926 56.4199 37.4309 56.5225 37.2926C56.4199 37.4654 56.6251 37.4309 56.5225 37.5691C56.4199 37.5346 56.3515 37.6382 56.3857 37.7419C56.3515 37.7765 56.3173 37.8111 56.3515 37.9147C56.4199 37.8456 56.4199 37.7765 56.4883 37.8111ZM56.6251 40.4032C56.4541 40.4378 56.3515 40.4724 56.4883 40.2995C56.6251 40.3687 56.5909 40.1959 56.5225 40.1613C56.3857 40.1613 56.4883 40.4032 56.3515 40.1959C56.3515 40.2995 56.3857 40.4032 56.3857 40.5069C56.4883 40.5415 56.5567 40.4378 56.6251 40.4032ZM56.5909 39.8848C56.6593 39.9194 56.6935 39.8502 56.7277 39.8157C56.6593 39.7811 56.4883 39.8848 56.4199 39.9539C56.3857 39.9885 56.3857 40.023 56.4541 40.023C56.4883 39.9885 56.5225 39.8502 56.5909 39.8848ZM56.5225 32.6233C56.4541 32.6233 56.3857 32.6233 56.4541 32.6924C56.5225 32.6924 56.6593 32.6233 56.5225 32.6233ZM56.6935 36.8053C56.6251 36.8744 56.4883 36.909 56.4541 37.0127C56.4883 37.0127 56.7619 36.9781 56.6935 36.8053ZM56.5225 39.8122L56.7277 39.6394C56.6137 39.6624 56.5453 39.72 56.5225 39.8122ZM56.8987 39.9159C56.7619 39.8813 56.8987 39.7777 56.8303 39.674C56.7277 39.7431 56.8645 39.8813 56.7277 39.9159C56.6593 39.9159 56.6935 40.0196 56.6251 40.0196C56.5909 40.0196 56.5909 40.0541 56.5567 40.0887C56.6593 40.1233 57.0013 40.0887 56.8987 39.9159ZM56.8303 36.6636C56.6593 36.6636 56.6251 36.6982 56.5909 36.8018C56.6935 36.8364 56.7619 36.7673 56.8303 36.6636ZM57.2408 39.5012C57.2066 39.4666 57.1724 39.432 57.1724 39.4666C57.1382 39.3629 57.0013 39.2247 56.9671 39.3629C56.8645 39.3629 56.7961 39.2938 56.7277 39.2247C56.6935 39.3283 56.6593 39.3283 56.5909 39.2938C56.5909 39.3629 56.6251 39.432 56.6935 39.3975C56.8303 39.3975 57.3092 39.4666 56.9671 39.6048C57.0697 39.7431 57.1724 39.5357 57.2408 39.5012ZM56.8645 40.1233C56.7277 40.0887 56.6251 40.1924 56.7277 40.2961C56.8303 40.1924 56.8987 40.2615 56.9671 40.3306V40.227C57.1381 40.4689 57.0013 40.0541 56.8645 40.1233ZM56.8987 40.5035C56.8645 40.6071 56.9329 40.7454 57.0355 40.7454C57.0013 40.6071 57.0013 40.4689 56.8987 40.5035ZM56.8987 40.3306C56.9329 40.3998 56.9329 40.4343 56.9671 40.4689C57.0013 40.3652 57.0013 40.3306 56.8987 40.3306ZM57.104 41.091C57.0355 41.0219 57.0355 40.9528 57.1381 41.0219C57.1724 41.091 57.2408 41.1256 57.3092 41.091C57.446 40.9873 57.0697 40.6763 57.104 40.9528L57.0355 40.8836C56.9671 40.9528 57.104 41.0565 56.9671 41.091C57.0013 41.1256 57.0697 41.091 57.104 41.091ZM57.4802 40.2961C57.4118 40.1578 57.3434 40.3306 57.2066 40.1924C57.2408 40.538 57.104 40.0542 57.104 40.3652C57.1724 40.2961 57.1381 40.4689 57.2066 40.4689C57.1724 40.3652 57.275 40.3998 57.275 40.3306C57.3434 40.3306 57.3434 40.3652 57.3434 40.4343C57.4118 40.4343 57.446 40.4689 57.4802 40.5035C57.5828 40.538 57.4802 40.3652 57.4802 40.2961ZM57.617 40.538C57.5144 40.6071 57.4802 40.7108 57.6512 40.7108C57.6512 40.6417 57.617 40.6071 57.617 40.538ZM57.6512 40.4343C57.6854 40.4689 57.7196 40.5035 57.788 40.538C57.8222 40.4689 57.7538 40.4343 57.6512 40.4343ZM57.9248 40.8836C57.8906 41.0219 57.7538 41.091 57.9248 41.1256C57.959 41.0565 57.9248 40.9873 57.9248 40.8836ZM58.0616 38.7753C58.0274 38.6371 58.0274 38.8445 57.9248 38.7753C57.8906 38.9136 58.0274 38.9136 58.13 38.879C58.13 38.8099 58.13 38.7408 58.0616 38.7753ZM58.1642 39.7776C58.13 39.7776 58.13 39.8468 58.0958 39.8468C57.9932 39.7777 57.9932 39.8468 57.959 39.9505C58.0274 39.9159 58.0616 39.9505 58.13 39.9505C58.2326 39.8813 58.2326 39.9505 58.2326 40.0541C58.301 39.9159 58.301 40.0541 58.3352 40.1233C58.5746 39.9159 58.13 39.9159 58.1642 39.7776ZM58.13 41.2293C58.1642 41.2638 58.1642 41.3675 58.1984 41.3675C58.2326 41.2984 58.1984 41.1256 58.13 41.2293ZM58.6088 41.0219C58.6772 41.0219 58.7114 41.0565 58.7457 41.091C58.8141 40.9182 58.7457 40.9528 58.6088 41.0219ZM58.6772 40.0887C58.643 40.1578 58.7114 40.1578 58.7799 40.1578C58.7457 40.1233 58.7114 40.0887 58.6772 40.0887ZM58.9509 40.8491C58.8825 40.6763 58.6772 40.7454 58.7799 40.8491C58.9509 40.8145 58.9167 40.8836 58.9167 40.9873C58.9509 41.0565 58.9509 41.091 59.0193 41.0565C59.1219 41.0565 58.9851 40.78 58.9509 40.8491ZM59.2587 40.4343H59.0877C59.1561 40.5035 59.2245 40.4689 59.2587 40.4343ZM59.3613 39.3629C59.2587 39.3629 59.1903 39.2247 59.2245 39.3975C59.8059 39.6048 59.0535 38.879 59.3613 39.3629ZM59.2929 19.4101C59.2587 19.4447 59.3613 19.4793 59.3613 19.5138C59.4297 19.4447 59.3955 19.4101 59.2929 19.4101ZM59.4981 39.7085C59.4297 39.6394 59.4639 39.5012 59.3271 39.5012C59.3955 39.6048 59.3613 39.8813 59.4981 39.8122C59.4297 39.674 59.4981 39.7431 59.5665 39.8468C59.6007 39.8122 59.5665 39.6048 59.4981 39.7085ZM60.5242 19.6866C60.4558 19.7558 60.4216 19.7558 60.3532 19.6866C60.3532 19.6521 60.2505 19.6521 60.319 19.6175C60.4558 19.5829 60.2505 19.4793 60.2505 19.4101C60.1821 19.4447 59.9769 19.4101 59.9769 19.3065C59.9427 19.341 59.9427 19.3065 59.9427 19.2719L59.8743 19.341C59.8743 19.2373 59.8401 19.0991 59.8401 19.2719C59.7375 19.2373 59.7717 19.2719 59.7717 19.341C59.5323 19.2373 59.5323 18.9608 59.5323 19.341C59.1903 19.1336 59.3955 19.4447 59.5323 19.583C59.7033 19.3065 59.9769 19.7558 60.2163 19.7212C60.3874 19.6866 60.3532 19.7558 60.4216 19.8594C60.5242 19.7903 60.661 19.7903 60.7294 19.894C60.7636 19.9631 60.7978 19.9631 60.8662 19.9286C60.7978 19.7903 60.661 19.7212 60.5242 19.6866ZM59.7717 39.1521C59.5323 39.6705 59.6349 38.8065 59.4639 39.1866C59.4411 39.2558 59.4639 39.2903 59.5323 39.2903C59.4639 39.3595 59.5323 39.5668 59.5665 39.394C59.7033 39.7051 59.6007 39.3594 59.8743 39.4286C59.8401 39.2903 59.7717 39.2903 59.7717 39.1521ZM59.7717 39.5668C59.7375 39.6705 59.7033 39.6705 59.6007 39.6014C59.5323 39.7051 59.7033 39.8779 59.7033 39.7742C59.8059 39.8088 59.9085 39.8433 60.0111 39.7742C60.0795 39.7396 60.0795 39.8433 60.1137 39.8779C60.2163 39.5323 59.9085 39.7742 59.7717 39.5668ZM60.0453 40.7074C60.2163 40.6037 60.0453 40.1889 60.0453 40.4654C59.9769 40.3272 59.8743 40.3618 59.9769 40.5C59.9427 40.5346 59.9085 40.4654 59.8743 40.4654C59.6691 40.3963 59.8401 40.7074 59.9427 40.7074C59.8401 40.5691 59.9769 40.6382 60.0453 40.7074ZM59.8059 39.0138C59.7033 39.1521 60.0453 39.1521 59.9085 39.0484C59.8743 39.0484 59.8401 39.083 59.8059 39.0138ZM59.9769 38.1498C59.9085 38.2535 59.9769 38.3571 60.1137 38.3917C60.1479 38.288 60.1137 38.1843 59.9769 38.1498ZM60.1479 19.0645C60.1821 19.0991 60.1137 19.0991 60.0795 19.1336C59.9085 19.2373 60.2848 19.2719 60.3532 19.2719C60.3532 19.1336 60.2848 19.0991 60.1479 19.0645ZM60.1137 40.1233C60.0795 40.1578 60.0795 40.227 60.1479 40.227C60.1821 40.227 60.1479 40.0887 60.1137 40.1233ZM60.1479 38.2569C60.2163 38.3606 60.2505 38.568 60.3532 38.568C60.3532 38.4988 60.3532 38.2224 60.1479 38.2569ZM60.2847 40.7108C60.2163 40.7454 60.319 40.8145 60.3532 40.7454C60.319 40.7108 60.319 40.6763 60.2847 40.7108ZM61.1056 19.4101C61.1398 19.0991 60.6268 19.7212 60.7978 19.3065C60.7294 19.3065 60.6952 19.2719 60.661 19.2719C60.4558 19.4793 60.832 19.4101 60.7294 19.6866C60.7978 19.5138 60.9688 19.583 61.1056 19.4101ZM61.0714 20.1705C61.003 20.2051 61.0714 20.3088 61.1398 20.3088C61.1398 20.2396 61.174 20.2051 61.0714 20.1705ZM61.2424 19.6175C61.174 19.8594 61.7896 19.6866 61.7554 19.9631C61.8923 19.583 61.516 19.6866 61.2424 19.6175ZM61.4818 19.2719C61.3792 19.3065 61.4818 19.341 61.516 19.4101C61.5844 19.4101 61.516 19.341 61.4818 19.2719ZM61.7554 20.2051C61.801 20.2512 61.8353 20.2972 61.8581 20.3433C61.9265 20.2396 61.9265 20.2051 61.7554 20.2051ZM62.6447 20.0668L62.7473 20.2051C62.7815 20.1359 62.6447 19.894 62.6447 20.0668ZM63.6366 19.0991C63.4656 19.2028 63.4656 19.2373 63.3971 19.0991C63.3287 19.2373 63.534 19.2373 63.4656 19.3756C63.5682 19.341 63.6366 19.2373 63.6366 19.0991ZM63.5682 20.4124C63.534 20.3779 63.4314 20.3433 63.4656 20.4124C63.4998 20.4124 63.5682 20.447 63.5682 20.4124ZM63.5682 19.7212C63.6708 19.5138 63.4998 19.5138 63.4656 19.7212C63.4998 19.7212 63.534 19.6521 63.5682 19.7212ZM63.7734 19.2719C63.705 19.341 63.6708 19.3756 63.5682 19.3756C63.705 19.4447 63.6708 19.5484 63.6708 19.6866C63.7392 19.5484 64.0128 19.4101 63.7734 19.2719ZM63.8418 19.5138C63.9102 19.5829 63.9102 19.6866 64.0128 19.7558C64.0128 19.6521 64.1154 19.4101 63.8418 19.5138ZM63.9786 19.3065C63.9102 19.4101 64.0128 19.4101 64.0812 19.4447C64.0812 19.4101 64.0128 19.341 63.9786 19.3065ZM64.3206 18.8571C64.2522 18.9263 64.1154 18.7189 64.0812 18.9608C64.1496 18.9608 64.218 18.9263 64.218 19.03C64.2864 18.9608 64.3548 18.8917 64.3206 18.8571ZM64.2864 19.03C64.2522 19.0645 64.1838 19.2028 64.2522 19.2028C64.2522 19.1336 64.389 19.0991 64.2864 19.03ZM64.2864 19.2719C64.3548 19.3065 64.3548 19.4101 64.4574 19.341C64.4232 19.4101 64.4232 19.4447 64.4916 19.5138V19.3756C64.4574 19.2719 64.4574 19.2373 64.2864 19.2719ZM64.2864 19.5138C64.3206 19.5829 64.389 19.5829 64.4232 19.6175C64.4916 19.5138 64.389 19.4793 64.2864 19.5138ZM64.4916 20.0323C64.2864 19.7903 64.4232 20.0668 64.4916 20.1359C64.56 19.9977 64.6284 19.8249 64.4916 20.0323ZM64.7652 19.894C64.731 19.9631 64.6626 19.9977 64.5942 20.0323C64.6284 20.1359 64.7652 20.1705 64.731 20.2742C64.731 20.2742 64.731 20.2396 64.6968 20.2396C64.5258 20.3779 64.731 20.4124 64.8678 20.3779C64.9362 20.2742 64.731 20.0668 64.7652 19.894ZM65.2441 20.6889C65.2783 20.7235 65.3125 20.7235 65.3467 20.7235C65.3467 20.6198 65.2099 20.6544 65.2441 20.6889ZM65.7913 18.8571C65.7913 18.8226 65.8255 18.788 65.8255 18.788C65.6887 18.5115 65.6545 18.5461 65.5177 18.788L65.6203 18.9263C65.6203 18.8226 65.7229 18.7535 65.7913 18.8571ZM65.7571 19.2028L65.7913 19.2373C65.6887 18.7189 65.4835 19.4447 65.7571 19.2028ZM65.8255 20.2051C65.8255 20.2742 65.6203 20.2742 65.7571 20.3433C65.7229 20.447 65.8597 20.447 65.7913 20.5507C65.9965 20.5853 65.9623 20.2742 65.8255 20.2051ZM65.8255 19.583L65.8597 19.341C65.7229 19.3756 65.7913 19.4793 65.8255 19.583ZM66.7832 20.2396C66.7832 20.1014 66.7148 20.0323 66.6464 19.9631C66.749 19.9631 66.7148 20.0668 66.8174 19.894C66.8174 19.9977 66.92 20.1014 66.9542 19.9977C66.92 19.9631 66.9542 19.9286 66.9542 19.894C67.0226 19.8249 66.9884 19.7558 67.0226 19.6866C67.091 19.5138 66.749 19.6866 66.8516 19.4101C66.6806 19.341 67.0568 19.2373 66.8174 19.1682C66.6122 19.0991 66.7832 19.03 66.7148 18.9263C66.5779 18.9954 66.5095 18.9954 66.3727 18.8917C66.2017 19.0991 66.3043 18.8917 66.3385 18.788C66.2701 18.8226 66.2359 18.8917 66.2017 18.8226C66.0991 18.8226 66.0991 18.8917 66.0991 18.9608C66.0307 18.9608 65.8939 18.8917 65.9281 18.9954C65.8255 19.0991 66.0649 19.0991 65.9281 19.2028C65.9965 19.2373 66.0649 19.2719 66.0991 19.3065C66.2017 19.3756 66.2017 19.2719 66.2017 19.2373V19.2719C66.2701 19.2028 66.3043 19.2028 66.2701 19.1682C66.2701 19.1336 66.3043 19.1336 66.3385 19.1682C66.3613 19.1682 66.3727 19.1797 66.3727 19.2028C66.3043 19.2719 66.3385 19.4101 66.4411 19.341C66.4069 19.5138 66.4069 19.6866 66.2017 19.7212C66.2701 19.7903 66.3043 19.894 66.3727 19.7903C66.4069 19.8249 66.4411 19.8594 66.4753 19.7903C66.5437 19.7558 66.6806 19.9286 66.5779 19.9631C66.5437 19.9977 66.5437 20.0323 66.5437 20.0323C66.6806 20.1014 66.6122 20.2396 66.6464 20.3433C66.6464 20.5507 66.749 20.3433 66.8174 20.5161C66.7832 20.3779 67.1252 20.1014 66.7832 20.2396ZM66.1333 19.8249C66.0307 19.8249 65.9965 19.8249 66.0307 19.9286C66.0991 19.9286 66.1333 19.9286 66.1333 19.8249ZM66.1675 19.4793C66.1333 19.5138 66.0649 19.5829 66.1333 19.6175C66.2017 19.5138 66.2359 19.5138 66.1675 19.4793ZM66.4411 20.6198C66.3043 20.5161 65.9965 20.5161 66.3043 20.6198C66.3043 20.7235 66.4069 20.6889 66.4411 20.6198ZM66.2359 19.9631C66.3043 20.0323 66.3613 20.0438 66.4069 19.9977C66.3727 19.9286 66.2701 19.9631 66.2359 19.9631ZM66.3727 19.5138V19.341C66.2701 19.4447 66.3043 19.4447 66.3727 19.5138ZM66.3727 20.7926C66.3385 20.8963 66.3043 20.9654 66.3385 21.0346C66.4411 20.9309 66.5095 20.8618 66.3727 20.7926ZM66.5437 18.5806L66.3385 18.7189C66.4411 18.7535 66.4753 18.7189 66.5437 18.5806ZM66.4069 21.4493C66.4069 21.5184 66.4411 21.4839 66.4753 21.5184C66.5095 21.4493 66.4411 21.4493 66.4069 21.4493ZM66.749 20.5507C66.7832 20.6544 66.7148 20.7926 66.8516 20.7581C66.8858 20.6889 66.9542 20.6198 66.749 20.5507ZM67.0226 19.4447C67.3646 19.0991 66.6464 19.3065 66.9884 19.4447C67.0226 19.341 67.0226 19.3756 67.0226 19.4447ZM67.1252 20.4124C67.091 20.4816 66.9884 20.5161 67.0568 20.5853C67.0568 20.5161 67.2278 20.447 67.1252 20.4124ZM67.1252 18.8226C67.0226 18.8917 67.091 18.8917 67.1594 18.9608C67.1936 18.9263 67.1252 18.8571 67.1252 18.8226ZM67.2278 20.3088C67.091 20.2396 67.3646 20.1705 67.2278 20.1014C67.091 20.1359 67.091 20.3433 67.1936 20.3779C67.262 20.3779 67.2962 20.3433 67.2278 20.3088ZM67.3646 19.03V18.9263C67.262 19.03 67.3304 19.1682 67.4672 19.0991C67.6382 19.1336 67.4672 18.8571 67.3646 19.03ZM67.433 20.4124C67.3304 20.4816 67.3988 20.5853 67.5014 20.6198C67.604 20.5161 67.6382 20.4816 67.433 20.4124ZM67.5698 18.8571C67.5356 18.9263 67.5014 19.03 67.604 18.9954C67.6382 18.9608 67.6382 18.9263 67.5698 18.8571ZM70.3402 18.4078H76.329V41.4021H70.3402V18.4113V18.4078ZM81.7329 35.8687V31.2684L79.4414 30.3007C78.9284 30.0933 78.6889 29.4712 79.031 28.9182L81.4593 25.462L79.1336 22.9735C78.6889 22.5242 78.86 21.7638 79.4414 21.5219L87.2429 17.9965C87.5849 17.8583 87.9954 17.9274 88.269 18.2039L90.4921 20.5541L92.681 18.2039C92.9547 17.9274 93.3651 17.8583 93.7071 17.9965L101.509 21.5219C102.09 21.7638 102.261 22.5242 101.816 22.9735L99.4907 25.462L101.919 28.9182C102.261 29.4712 102.022 30.0933 101.509 30.3007L99.2171 31.2684V35.8687C99.2171 38.9101 96.8571 41.4021 93.9465 41.4021H86.9659C84.0929 41.4021 81.7295 38.9136 81.7295 35.8687H81.7329ZM89.0898 29.0565L82.9642 26.4988L81.1857 29.0565L87.2771 31.6141L89.0898 29.0565ZM88.9188 21.553L87.4139 19.9286L81.3225 22.659L82.8616 24.2834L88.9188 21.553ZM97.4044 35.8687V32.0323L93.6763 33.5876C93.2659 33.7258 92.8555 33.6567 92.5819 33.2765L90.4955 30.235L88.375 33.2765C88.1356 33.6567 87.6909 33.7258 87.2805 33.5876L83.5525 32.0323V35.8687C83.5525 37.9078 85.0916 39.5668 86.9727 39.5668H93.9534C95.8687 39.5668 97.4078 37.9078 97.4078 35.8687H97.4044ZM96.0021 25.3583L90.4579 22.8698L84.9479 25.3583L90.4579 27.6394L96.0021 25.3583ZM99.7643 29.0565L97.9858 26.4988L91.8602 29.0565L93.6387 31.6141L99.7643 29.0565ZM99.6275 22.659L93.5361 19.9286L92.0312 21.553L98.0884 24.2834L99.6275 22.659ZM104.621 18.4044H110.439L119.335 31.2684V18.4044H125.324V41.3986H119.506L110.61 28.5346V41.3986H104.621V18.4113V18.4044ZM0 0.245393H5.17137C8.88231 0.245393 10.5651 2.84793 10.5651 5.10138C10.5651 7.35484 8.88231 9.95738 5.17137 9.95738H3.55019V13.8698H0.00342095V0.245393H0ZM4.82593 6.88479C6.24532 6.88479 6.91568 6.02419 6.91568 5.10138C6.91568 4.17857 6.24532 3.31797 4.82593 3.31797H3.55019V6.88134H4.82593V6.88479ZM12.4017 0.245393H17.5526C21.2635 0.245393 22.9052 2.84793 22.9052 5.10138C22.9052 6.49424 22.2759 7.99078 20.9591 8.95161L23.3703 13.8698H19.3755L17.5115 9.95738H15.9519V13.8698H12.4051V0.245393H12.4017ZM17.125 6.88479C18.5649 6.88479 19.2524 6.02419 19.2524 5.10138C19.2524 4.17857 18.5615 3.31797 17.125 3.31797H15.9485V6.88134H17.125V6.88479ZM25.3267 0.245393H34.2261V3.21774H28.8735V5.53341H33.4566V8.50576H28.8735V10.9044H34.4484V13.8767H25.3267V0.245393ZM36.1893 9.23848H39.7771C39.8387 10.5104 40.9742 11.0426 42.0482 11.0426C43.0229 11.0426 43.9532 10.6141 43.9532 9.89516C43.9532 7.90784 36.3911 9.48387 36.3911 4.24078C36.3911 1.65899 38.5801 0 41.6001 0C45.3521 0 47.2161 2.27419 47.3563 4.97696H43.7685C43.707 3.78802 42.8553 3.07258 41.7198 3.07258C40.745 3.07258 40.0371 3.40092 40.0371 4.19931C40.0371 6.59793 47.5992 4.52765 47.5992 9.89516C47.5992 12.4562 45.3487 14.1152 42.1063 14.1152C38.5801 14.1152 36.3501 12.394 36.1859 9.23848H36.1893ZM52.0386 3.42166H48.2456V0.245393H59.3955V3.42166H55.5854V13.8698H52.0386V3.42166ZM62.9115 0.245393H67.3509L71.9716 13.8698H68.2197L67.4706 11.4332H62.6857L61.9367 13.8698H58.2668L62.9081 0.245393H62.9115ZM66.5403 8.46083L65.0799 3.78802L63.6195 8.46083H66.5403ZM72.5326 9.23848H76.1204C76.1819 10.5104 77.3174 11.0426 78.3914 11.0426C79.3661 11.0426 80.2964 10.6141 80.2964 9.89516C80.2964 7.90784 72.7343 9.48387 72.7343 4.24078C72.7343 1.65899 74.9233 0 77.9433 0C81.6953 0 83.5593 2.27419 83.6996 4.97696H80.1117C80.0502 3.78802 79.1986 3.07258 78.063 3.07258C77.0917 3.07258 76.3803 3.40092 76.3803 4.19931C76.3803 6.59793 83.9424 4.52765 83.9424 9.89516C83.9424 12.4562 81.6919 14.1152 78.4495 14.1152C74.9233 14.1152 72.6933 12.394 72.5291 9.23848H72.5326ZM86.1108 0.245393H89.6576V5.4712H94.463V0.245393H98.0098V13.8698H94.463V8.44009H89.6576V13.8698H86.1108V0.245393ZM99.9388 7.0265C99.9388 2.84793 102.695 0 106.731 0C110.767 0 113.544 2.84793 113.544 7.0265C113.544 11.2051 110.788 14.1152 106.731 14.1152C102.675 14.1152 99.9388 11.2465 99.9388 7.0265ZM106.731 11.0426C108.616 11.0426 109.895 9.40438 109.895 7.0265C109.895 4.64862 108.619 3.07258 106.731 3.07258C104.843 3.07258 103.588 4.66936 103.588 7.0265C103.588 9.38364 104.864 11.0426 106.731 11.0426ZM115.47 0.245393H120.641C124.352 0.245393 126.035 2.84793 126.035 5.10138C126.035 7.35484 124.352 9.95738 120.641 9.95738H119.02V13.8698H115.473V0.245393H115.47ZM120.296 6.88479C121.715 6.88479 122.386 6.02419 122.386 5.10138C122.386 4.17857 121.715 3.31797 120.296 3.31797H119.02V6.88134H120.296V6.88479Z" fill="white"/>
</svg>
